<svg width="17" height="14" viewBox="0 0 17 14" fill="none" xmlns="http://www.w3.org/2000/svg">
<g opacity="0.2">
<path fill-rule="evenodd" clip-rule="evenodd" d="M9.24722 0.750712C9.42882 0.59931 9.63847 0.485168 9.86419 0.414806C10.0899 0.344445 10.3273 0.319242 10.5627 0.340637C10.7982 0.362033 11.0272 0.429608 11.2365 0.539502C11.4458 0.649397 11.6315 0.799457 11.7828 0.981112L15.7824 5.78111C15.9405 5.96176 16.0608 6.17218 16.1363 6.40001C16.2118 6.62784 16.241 6.86847 16.2221 7.10774C16.2032 7.34701 16.1367 7.5801 16.0265 7.79328C15.9162 8.00647 15.7644 8.19544 15.58 8.3491C15.3956 8.50275 15.1824 8.61798 14.9528 8.688C14.7232 8.75802 14.482 8.78142 14.2432 8.75682C14.0045 8.73223 13.773 8.66013 13.5626 8.54477C13.3521 8.42942 13.1668 8.27313 13.0176 8.08511L9.01682 3.28511C8.71142 2.91842 8.56414 2.44546 8.60734 1.97021C8.65055 1.49496 8.88071 1.05632 9.24722 0.750712Z" fill="white"/>
<path fill-rule="evenodd" clip-rule="evenodd" d="M9.24722 13.1155C8.88071 12.8099 8.65055 12.3712 8.60734 11.896C8.56414 11.4207 8.71142 10.9478 9.01682 10.5811L13.0176 5.78108C13.327 5.42741 13.7625 5.20875 14.2309 5.17183C14.6994 5.13491 15.1637 5.28264 15.5247 5.58347C15.8857 5.88429 16.1147 6.31436 16.1629 6.7818C16.211 7.24923 16.0745 7.71697 15.7824 8.08508L11.7828 12.8851C11.6315 13.0667 11.4458 13.2168 11.2365 13.3267C11.0272 13.4366 10.7982 13.5042 10.5627 13.5255C10.3273 13.5469 10.0899 13.5217 9.86419 13.4514C9.63847 13.381 9.42882 13.2669 9.24722 13.1155Z" fill="white"/>
<path fill-rule="evenodd" clip-rule="evenodd" d="M13.8 6.93306C13.8 7.41045 13.6104 7.86828 13.2728 8.20585C12.9352 8.54341 12.4774 8.73306 12 8.73306H2.40001C1.92262 8.73306 1.46478 8.54341 1.12721 8.20585C0.789648 7.86828 0.600006 7.41045 0.600006 6.93306C0.600006 6.45567 0.789648 5.99783 1.12721 5.66026C1.46478 5.3227 1.92262 5.13306 2.40001 5.13306H12C12.4774 5.13306 12.9352 5.3227 13.2728 5.66026C13.6104 5.99783 13.8 6.45567 13.8 6.93306Z" fill="white"/>
</g>
<path fill-rule="evenodd" clip-rule="evenodd" d="M8.2164 0.47221C8.33863 0.370411 8.49628 0.321316 8.6547 0.335718C8.81312 0.350119 8.95933 0.426838 9.0612 0.54901L13.0608 5.34901C13.1582 5.47171 13.2037 5.62762 13.1876 5.78344C13.1716 5.93925 13.0952 6.0826 12.9749 6.18288C12.8546 6.28316 12.6998 6.3324 12.5436 6.32009C12.3875 6.30778 12.2423 6.2349 12.1392 6.11701L8.1396 1.31701C8.0378 1.19478 7.98871 1.03713 8.00311 0.878711C8.01751 0.720294 8.09423 0.57408 8.2164 0.47221Z" fill="white"/>
<path fill-rule="evenodd" clip-rule="evenodd" d="M8.2164 10.994C8.09423 10.8922 8.01751 10.7459 8.00311 10.5875C7.98871 10.4291 8.0378 10.2715 8.1396 10.1492L12.1392 5.34923C12.2423 5.23134 12.3875 5.15845 12.5436 5.14614C12.6998 5.13384 12.8546 5.18308 12.9749 5.28335C13.0952 5.38363 13.1716 5.52699 13.1876 5.6828C13.2037 5.83861 13.1582 5.99452 13.0608 6.11723L9.0612 10.9172C8.95933 11.0394 8.81312 11.1161 8.6547 11.1305C8.49628 11.1449 8.33863 11.0958 8.2164 10.994Z" fill="white"/>
<path fill-rule="evenodd" clip-rule="evenodd" d="M13.2 5.73306C13.2 5.89219 13.1368 6.0448 13.0243 6.15732C12.9117 6.26984 12.7591 6.33306 12.6 6.33306H0.6C0.44087 6.33306 0.288258 6.26984 0.175736 6.15732C0.0632142 6.0448 0 5.89219 0 5.73306C0 5.57393 0.0632142 5.42131 0.175736 5.30879C0.288258 5.19627 0.44087 5.13306 0.6 5.13306H12.6C12.7591 5.13306 12.9117 5.19627 13.0243 5.30879C13.1368 5.42131 13.2 5.57393 13.2 5.73306Z" fill="white"/>
</svg>
